<mxfile host="app.diagrams.net" modified="2024-04-18T23:06:17.515Z" agent="Mozilla/5.0 (Windows NT 10.0; Win64; x64) AppleWebKit/537.36 (KHTML, like Gecko) Chrome/123.0.0.0 Safari/537.36 Trailer/92.3.3006.23" etag="PQ77VgV2nOqikyQLM7V1" version="24.2.5" type="device">
  <diagram id="C5RBs43oDa-KdzZeNtuy" name="Page-1">
    <mxGraphModel dx="1050" dy="569" grid="1" gridSize="10" guides="1" tooltips="1" connect="1" arrows="1" fold="1" page="1" pageScale="1" pageWidth="827" pageHeight="1169" math="0" shadow="0">
      <root>
        <mxCell id="WIyWlLk6GJQsqaUBKTNV-0" />
        <mxCell id="WIyWlLk6GJQsqaUBKTNV-1" parent="WIyWlLk6GJQsqaUBKTNV-0" />
        <mxCell id="zkfFHV4jXpPFQw0GAbJ--26" value="" style="endArrow=open;shadow=0;strokeWidth=1;rounded=0;curved=0;endFill=1;edgeStyle=elbowEdgeStyle;elbow=vertical;" parent="WIyWlLk6GJQsqaUBKTNV-1" edge="1">
          <mxGeometry x="0.5" y="41" relative="1" as="geometry">
            <mxPoint x="380" y="165" as="sourcePoint" />
            <mxPoint x="508" y="165" as="targetPoint" />
            <mxPoint x="-40" y="32" as="offset" />
          </mxGeometry>
        </mxCell>
        <mxCell id="zkfFHV4jXpPFQw0GAbJ--28" value="0...*" style="resizable=0;align=right;verticalAlign=bottom;labelBackgroundColor=none;fontSize=12;" parent="zkfFHV4jXpPFQw0GAbJ--26" connectable="0" vertex="1">
          <mxGeometry x="1" relative="1" as="geometry">
            <mxPoint x="-7" y="4" as="offset" />
          </mxGeometry>
        </mxCell>
        <mxCell id="jgV9b4HeaqgOm8Ign2In-56" value="Utilisateur" style="swimlane;fontStyle=0;childLayout=stackLayout;horizontal=1;startSize=30;horizontalStack=0;resizeParent=1;resizeParentMax=0;resizeLast=0;collapsible=1;marginBottom=0;whiteSpace=wrap;html=1;" parent="WIyWlLk6GJQsqaUBKTNV-1" vertex="1">
          <mxGeometry x="220" y="130" width="160" height="120" as="geometry" />
        </mxCell>
        <mxCell id="jgV9b4HeaqgOm8Ign2In-57" value="&lt;div&gt;&lt;br&gt;&lt;/div&gt;&lt;div&gt;&lt;br&gt;&lt;/div&gt;&lt;div&gt;Id : int&lt;/div&gt;login : string&lt;div&gt;Password : string&lt;br&gt;&lt;/div&gt;" style="text;strokeColor=none;fillColor=none;align=left;verticalAlign=middle;spacingLeft=4;spacingRight=4;overflow=hidden;points=[[0,0.5],[1,0.5]];portConstraint=eastwest;rotatable=0;whiteSpace=wrap;html=1;" parent="jgV9b4HeaqgOm8Ign2In-56" vertex="1">
          <mxGeometry y="30" width="160" height="90" as="geometry" />
        </mxCell>
        <mxCell id="jgV9b4HeaqgOm8Ign2In-60" value="1" style="resizable=0;align=right;verticalAlign=bottom;labelBackgroundColor=none;fontSize=12;" parent="WIyWlLk6GJQsqaUBKTNV-1" connectable="0" vertex="1">
          <mxGeometry x="440" y="220" as="geometry">
            <mxPoint x="-45" y="-54" as="offset" />
          </mxGeometry>
        </mxCell>
        <mxCell id="jgV9b4HeaqgOm8Ign2In-65" value="Historique&amp;nbsp;" style="swimlane;fontStyle=0;childLayout=stackLayout;horizontal=1;startSize=30;horizontalStack=0;resizeParent=1;resizeParentMax=0;resizeLast=0;collapsible=1;marginBottom=0;whiteSpace=wrap;html=1;" parent="WIyWlLk6GJQsqaUBKTNV-1" vertex="1">
          <mxGeometry x="510" y="120" width="160" height="420" as="geometry" />
        </mxCell>
        <mxCell id="jgV9b4HeaqgOm8Ign2In-69" value="&lt;div&gt;&lt;br&gt;&lt;/div&gt;&lt;div&gt;&lt;br&gt;&lt;/div&gt;&lt;div&gt;id: int&amp;nbsp;&lt;/div&gt;&lt;div&gt;&lt;br&gt;&lt;/div&gt;&lt;div&gt;modele&lt;span style=&quot;background-color: initial;&quot;&gt;: string&lt;/span&gt;&lt;/div&gt;&lt;div&gt;&lt;span style=&quot;background-color: initial;&quot;&gt;&lt;br&gt;&lt;/span&gt;&lt;/div&gt;&lt;div&gt;prÃ©cision: string&lt;/div&gt;&lt;div&gt;&lt;br&gt;&lt;/div&gt;&lt;div&gt;n_eighbors_knn: float&lt;/div&gt;&lt;div&gt;&lt;br&gt;&lt;/div&gt;&lt;div&gt;weight_knn: string&lt;/div&gt;&lt;div&gt;&lt;br&gt;&lt;/div&gt;&lt;div&gt;metric_knn : string&lt;/div&gt;&lt;div&gt;&amp;nbsp;&lt;/div&gt;&lt;div&gt;destination_random : float&amp;nbsp;&lt;/div&gt;&lt;div&gt;&lt;br&gt;&lt;/div&gt;&lt;div&gt;max_depht_random&amp;nbsp;&lt;span style=&quot;background-color: initial;&quot;&gt;: float&lt;/span&gt;&lt;/div&gt;&lt;div&gt;&lt;span style=&quot;background-color: initial;&quot;&gt;&lt;br&gt;&lt;/span&gt;&lt;/div&gt;&lt;div&gt;c_sym : string&amp;nbsp;&lt;/div&gt;&lt;div&gt;&lt;br&gt;&lt;/div&gt;&lt;div&gt;kennel_svm : string&lt;/div&gt;&lt;div&gt;&lt;br&gt;&lt;/div&gt;&lt;div&gt;gamma_svm : string&lt;/div&gt;&lt;div&gt;&lt;br&gt;&lt;/div&gt;&lt;div&gt;time : datetime&amp;nbsp;&lt;/div&gt;&lt;div&gt;&lt;br&gt;&lt;/div&gt;" style="text;html=1;align=center;verticalAlign=middle;resizable=0;points=[];autosize=1;strokeColor=none;fillColor=none;" parent="jgV9b4HeaqgOm8Ign2In-65" vertex="1">
          <mxGeometry y="30" width="160" height="390" as="geometry" />
        </mxCell>
      </root>
    </mxGraphModel>
  </diagram>
</mxfile>
